<?xml version="1.0" encoding="UTF-8" standalone="no"?>
<!DOCTYPE svg PUBLIC "-//W3C//DTD SVG 1.1//EN"
 "http://www.w3.org/Graphics/SVG/1.1/DTD/svg11.dtd">
<!-- Generated by graphviz version 2.36.0 (20140111.2315)
 -->
<!-- Title: controllers_diagram Pages: 1 -->
<svg width="446pt" height="406pt"
 viewBox="0.00 0.00 446.00 406.46" xmlns="http://www.w3.org/2000/svg" xmlns:xlink="http://www.w3.org/1999/xlink">
<g id="graph0" class="graph" transform="scale(1 1) rotate(0) translate(4 402.456)">
<title>controllers_diagram</title>
<polygon fill="white" stroke="none" points="-4,4 -4,-402.456 442,-402.456 442,4 -4,4"/>
<!-- _diagram_info -->
<g id="node1" class="node"><title>_diagram_info</title>
<text text-anchor="start" x="239" y="-96.6" font-family="Times,serif" font-size="13.00">Controllers diagram</text>
<text text-anchor="start" x="239" y="-82.6" font-family="Times,serif" font-size="13.00">Date: Feb 03 2014 &#45; 20:29</text>
<text text-anchor="start" x="239" y="-68.6" font-family="Times,serif" font-size="13.00">Migration version: 20140117034654</text>
<text text-anchor="start" x="239" y="-54.6" font-family="Times,serif" font-size="13.00">Generated by RailRoady 1.1.1</text>
<text text-anchor="start" x="239" y="-40.6" font-family="Times,serif" font-size="13.00">http://railroady.prestonlee.com</text>
</g>
<!-- ApplicationController -->
<g id="node2" class="node"><title>ApplicationController</title>
<path fill="none" stroke="black" d="M102.283,-156.944C102.283,-156.944 222.283,-156.944 222.283,-156.944 228.283,-156.944 234.283,-162.944 234.283,-168.944 234.283,-168.944 234.283,-238.944 234.283,-238.944 234.283,-244.944 228.283,-250.944 222.283,-250.944 222.283,-250.944 102.283,-250.944 102.283,-250.944 96.2829,-250.944 90.2829,-244.944 90.2829,-238.944 90.2829,-238.944 90.2829,-168.944 90.2829,-168.944 90.2829,-162.944 96.2829,-156.944 102.283,-156.944"/>
<text text-anchor="middle" x="162.283" y="-235.744" font-family="Times,serif" font-size="14.00">ApplicationController</text>
<polyline fill="none" stroke="black" points="90.2829,-227.944 234.283,-227.944 "/>
<polyline fill="none" stroke="black" points="90.2829,-203.944 234.283,-203.944 "/>
<polyline fill="none" stroke="black" points="90.2829,-179.944 234.283,-179.944 "/>
<text text-anchor="start" x="98.2829" y="-164.744" font-family="Times,serif" font-size="14.00">_layout</text>
</g>
<!-- BoxesController -->
<g id="node3" class="node"><title>BoxesController</title>
<path fill="none" stroke="black" d="M275.915,-151.987C275.915,-151.987 364.915,-151.987 364.915,-151.987 370.915,-151.987 376.915,-157.987 376.915,-163.987 376.915,-163.987 376.915,-292.987 376.915,-292.987 376.915,-298.987 370.915,-304.987 364.915,-304.987 364.915,-304.987 275.915,-304.987 275.915,-304.987 269.915,-304.987 263.915,-298.987 263.915,-292.987 263.915,-292.987 263.915,-163.987 263.915,-163.987 263.915,-157.987 269.915,-151.987 275.915,-151.987"/>
<text text-anchor="middle" x="320.415" y="-289.787" font-family="Times,serif" font-size="14.00">BoxesController</text>
<polyline fill="none" stroke="black" points="263.915,-281.987 376.915,-281.987 "/>
<text text-anchor="start" x="271.915" y="-266.787" font-family="Times,serif" font-size="14.00">create</text>
<text text-anchor="start" x="271.915" y="-251.787" font-family="Times,serif" font-size="14.00">index</text>
<text text-anchor="start" x="271.915" y="-236.787" font-family="Times,serif" font-size="14.00">new</text>
<text text-anchor="start" x="271.915" y="-221.787" font-family="Times,serif" font-size="14.00">show</text>
<polyline fill="none" stroke="black" points="263.915,-213.987 376.915,-213.987 "/>
<polyline fill="none" stroke="black" points="263.915,-189.987 376.915,-189.987 "/>
<text text-anchor="start" x="271.915" y="-174.787" font-family="Times,serif" font-size="14.00">_layout</text>
<text text-anchor="start" x="271.915" y="-159.787" font-family="Times,serif" font-size="14.00">box_params</text>
</g>
<!-- ApplicationController&#45;&gt;BoxesController -->
<g id="edge1" class="edge"><title>ApplicationController&#45;&gt;BoxesController</title>
<path fill="none" stroke="black" d="M234.408,-215.138C244.182,-216.655 254.1,-218.195 263.556,-219.662"/>
</g>
<!-- ItemsController -->
<g id="node4" class="node"><title>ItemsController</title>
<path fill="none" stroke="black" d="M63.7316,-0.5C63.7316,-0.5 146.732,-0.5 146.732,-0.5 152.732,-0.5 158.732,-6.5 158.732,-12.5 158.732,-12.5 158.732,-96.5 158.732,-96.5 158.732,-102.5 152.732,-108.5 146.732,-108.5 146.732,-108.5 63.7316,-108.5 63.7316,-108.5 57.7316,-108.5 51.7316,-102.5 51.7316,-96.5 51.7316,-96.5 51.7316,-12.5 51.7316,-12.5 51.7316,-6.5 57.7316,-0.5 63.7316,-0.5"/>
<text text-anchor="middle" x="105.232" y="-93.3" font-family="Times,serif" font-size="14.00">ItemsController</text>
<polyline fill="none" stroke="black" points="51.7316,-85.5 158.732,-85.5 "/>
<text text-anchor="start" x="59.7316" y="-70.3" font-family="Times,serif" font-size="14.00">create</text>
<polyline fill="none" stroke="black" points="51.7316,-62.5 158.732,-62.5 "/>
<polyline fill="none" stroke="black" points="51.7316,-38.5 158.732,-38.5 "/>
<text text-anchor="start" x="59.7316" y="-23.3" font-family="Times,serif" font-size="14.00">_layout</text>
<text text-anchor="start" x="59.7316" y="-8.3" font-family="Times,serif" font-size="14.00">item_params</text>
</g>
<!-- ApplicationController&#45;&gt;ItemsController -->
<g id="edge2" class="edge"><title>ApplicationController&#45;&gt;ItemsController</title>
<path fill="none" stroke="black" d="M144.232,-156.659C138.388,-141.352 131.864,-124.262 125.849,-108.505"/>
</g>
<!-- LandingController -->
<g id="node5" class="node"><title>LandingController</title>
<path fill="none" stroke="black" d="M12,-259.956C12,-259.956 113,-259.956 113,-259.956 119,-259.956 125,-265.956 125,-271.956 125,-271.956 125,-385.956 125,-385.956 125,-391.956 119,-397.956 113,-397.956 113,-397.956 12,-397.956 12,-397.956 6,-397.956 -2.84217e-14,-391.956 -2.84217e-14,-385.956 -2.84217e-14,-385.956 -2.84217e-14,-271.956 -2.84217e-14,-271.956 -2.84217e-14,-265.956 6,-259.956 12,-259.956"/>
<text text-anchor="middle" x="62.5" y="-382.756" font-family="Times,serif" font-size="14.00">LandingController</text>
<polyline fill="none" stroke="black" points="-2.84217e-14,-374.956 125,-374.956 "/>
<text text-anchor="start" x="8" y="-359.756" font-family="Times,serif" font-size="14.00">index</text>
<text text-anchor="start" x="8" y="-344.756" font-family="Times,serif" font-size="14.00">iniciado</text>
<text text-anchor="start" x="8" y="-329.756" font-family="Times,serif" font-size="14.00">iniciar</text>
<text text-anchor="start" x="8" y="-314.756" font-family="Times,serif" font-size="14.00">registrarse</text>
<polyline fill="none" stroke="black" points="-2.84217e-14,-306.956 125,-306.956 "/>
<polyline fill="none" stroke="black" points="-2.84217e-14,-282.956 125,-282.956 "/>
<text text-anchor="start" x="8" y="-267.756" font-family="Times,serif" font-size="14.00">_layout</text>
</g>
<!-- ApplicationController&#45;&gt;LandingController -->
<g id="edge3" class="edge"><title>ApplicationController&#45;&gt;LandingController</title>
<path fill="none" stroke="black" d="M124.559,-251.206C122.352,-253.971 120.11,-256.779 117.854,-259.606"/>
</g>
</g>
</svg>
