<?xml version="1.0" encoding="UTF-8" standalone="no"?>
<!DOCTYPE svg PUBLIC "-//W3C//DTD SVG 1.1//EN"
 "http://www.w3.org/Graphics/SVG/1.1/DTD/svg11.dtd">
<!-- Generated by graphviz version 2.36.0 (20140111.2315)
 -->
<!-- Title: models_diagram Pages: 1 -->
<svg width="635pt" height="578pt"
 viewBox="0.00 0.00 635.12 578.00" xmlns="http://www.w3.org/2000/svg" xmlns:xlink="http://www.w3.org/1999/xlink">
<g id="graph0" class="graph" transform="scale(1 1) rotate(0) translate(4 574)">
<title>models_diagram</title>
<polygon fill="white" stroke="none" points="-4,4 -4,-574 631.116,-574 631.116,4 -4,4"/>
<!-- _diagram_info -->
<g id="node1" class="node"><title>_diagram_info</title>
<text text-anchor="start" x="7.5" y="-555.6" font-family="Times,serif" font-size="13.00">Models diagram</text>
<text text-anchor="start" x="7.5" y="-541.6" font-family="Times,serif" font-size="13.00">Date: Feb 03 2014 &#45; 20:29</text>
<text text-anchor="start" x="7.5" y="-527.6" font-family="Times,serif" font-size="13.00">Migration version: 20140117034654</text>
<text text-anchor="start" x="7.5" y="-513.6" font-family="Times,serif" font-size="13.00">Generated by RailRoady 1.1.1</text>
<text text-anchor="start" x="7.5" y="-499.6" font-family="Times,serif" font-size="13.00">http://railroady.prestonlee.com</text>
</g>
<!-- Box -->
<g id="node2" class="node"><title>Box</title>
<path fill="none" stroke="black" d="M205.5,-349C205.5,-349 316.5,-349 316.5,-349 322.5,-349 328.5,-355 328.5,-361 328.5,-361 328.5,-443 328.5,-443 328.5,-449 322.5,-455 316.5,-455 316.5,-455 205.5,-455 205.5,-455 199.5,-455 193.5,-449 193.5,-443 193.5,-443 193.5,-361 193.5,-361 193.5,-355 199.5,-349 205.5,-349"/>
<text text-anchor="middle" x="261" y="-439.8" font-family="Times,serif" font-size="14.00">Box</text>
<polyline fill="none" stroke="black" points="193.5,-432 328.5,-432 "/>
<text text-anchor="start" x="201.5" y="-416.8" font-family="Times,serif" font-size="14.00">id :integer</text>
<text text-anchor="start" x="201.5" y="-401.8" font-family="Times,serif" font-size="14.00">name :string</text>
<text text-anchor="start" x="201.5" y="-386.8" font-family="Times,serif" font-size="14.00">description :string</text>
<text text-anchor="start" x="201.5" y="-371.8" font-family="Times,serif" font-size="14.00">created_at :datetime</text>
<text text-anchor="start" x="201.5" y="-356.8" font-family="Times,serif" font-size="14.00">updated_at :datetime</text>
</g>
<!-- BoxPlan -->
<g id="node3" class="node"><title>BoxPlan</title>
<path fill="none" stroke="black" d="M63.5,-1C63.5,-1 174.5,-1 174.5,-1 180.5,-1 186.5,-7 186.5,-13 186.5,-13 186.5,-125 186.5,-125 186.5,-131 180.5,-137 174.5,-137 174.5,-137 63.5,-137 63.5,-137 57.5,-137 51.5,-131 51.5,-125 51.5,-125 51.5,-13 51.5,-13 51.5,-7 57.5,-1 63.5,-1"/>
<text text-anchor="middle" x="119" y="-121.8" font-family="Times,serif" font-size="14.00">BoxPlan</text>
<polyline fill="none" stroke="black" points="51.5,-114 186.5,-114 "/>
<text text-anchor="start" x="59.5" y="-98.8" font-family="Times,serif" font-size="14.00">id :integer</text>
<text text-anchor="start" x="59.5" y="-83.8" font-family="Times,serif" font-size="14.00">box_id :integer</text>
<text text-anchor="start" x="59.5" y="-68.8" font-family="Times,serif" font-size="14.00">plan_id :integer</text>
<text text-anchor="start" x="59.5" y="-53.8" font-family="Times,serif" font-size="14.00">start_day :date</text>
<text text-anchor="start" x="59.5" y="-38.8" font-family="Times,serif" font-size="14.00">end_day :date</text>
<text text-anchor="start" x="59.5" y="-23.8" font-family="Times,serif" font-size="14.00">created_at :datetime</text>
<text text-anchor="start" x="59.5" y="-8.8" font-family="Times,serif" font-size="14.00">updated_at :datetime</text>
</g>
<!-- Box&#45;&gt;BoxPlan -->
<g id="edge4" class="edge"><title>Box&#45;&gt;BoxPlan</title>
<path fill="none" stroke="#81d5db" d="M253.233,-340.694C245.439,-293.434 230.644,-227.028 204,-174 198.854,-163.758 192.55,-153.614 185.722,-143.909"/>
<ellipse fill="none" stroke="#81d5db" cx="253.883" cy="-344.748" rx="4.00001" ry="4.00001"/>
<ellipse fill="#81d5db" stroke="#81d5db" cx="183.263" cy="-140.506" rx="4.00002" ry="4.00002"/>
</g>
<!-- BoxStatus -->
<g id="node4" class="node"><title>BoxStatus</title>
<path fill="none" stroke="black" d="M301.5,-16C301.5,-16 412.5,-16 412.5,-16 418.5,-16 424.5,-22 424.5,-28 424.5,-28 424.5,-110 424.5,-110 424.5,-116 418.5,-122 412.5,-122 412.5,-122 301.5,-122 301.5,-122 295.5,-122 289.5,-116 289.5,-110 289.5,-110 289.5,-28 289.5,-28 289.5,-22 295.5,-16 301.5,-16"/>
<text text-anchor="middle" x="357" y="-106.8" font-family="Times,serif" font-size="14.00">BoxStatus</text>
<polyline fill="none" stroke="black" points="289.5,-99 424.5,-99 "/>
<text text-anchor="start" x="297.5" y="-83.8" font-family="Times,serif" font-size="14.00">id :integer</text>
<text text-anchor="start" x="297.5" y="-68.8" font-family="Times,serif" font-size="14.00">box_id :integer</text>
<text text-anchor="start" x="297.5" y="-53.8" font-family="Times,serif" font-size="14.00">status_id :integer</text>
<text text-anchor="start" x="297.5" y="-38.8" font-family="Times,serif" font-size="14.00">created_at :datetime</text>
<text text-anchor="start" x="297.5" y="-23.8" font-family="Times,serif" font-size="14.00">updated_at :datetime</text>
</g>
<!-- Box&#45;&gt;BoxStatus -->
<g id="edge2" class="edge"><title>Box&#45;&gt;BoxStatus</title>
<path fill="none" stroke="#bcfd26" d="M257.218,-340.512C256.354,-293.61 259.738,-227.762 280,-174 285.923,-158.283 294.955,-142.875 304.773,-128.937"/>
<ellipse fill="none" stroke="#bcfd26" cx="257.32" cy="-344.75" rx="4" ry="4"/>
<ellipse fill="#bcfd26" stroke="#bcfd26" cx="307.298" cy="-125.456" rx="4.00002" ry="4.00002"/>
</g>
<!-- Item -->
<g id="node5" class="node"><title>Item</title>
<path fill="none" stroke="black" d="M455,-175C455,-175 583,-175 583,-175 589,-175 595,-181 595,-187 595,-187 595,-299 595,-299 595,-305 589,-311 583,-311 583,-311 455,-311 455,-311 449,-311 443,-305 443,-299 443,-299 443,-187 443,-187 443,-181 449,-175 455,-175"/>
<text text-anchor="middle" x="519" y="-295.8" font-family="Times,serif" font-size="14.00">Item</text>
<polyline fill="none" stroke="black" points="443,-288 595,-288 "/>
<text text-anchor="start" x="451" y="-272.8" font-family="Times,serif" font-size="14.00">id :integer</text>
<text text-anchor="start" x="451" y="-257.8" font-family="Times,serif" font-size="14.00">name :string</text>
<text text-anchor="start" x="451" y="-242.8" font-family="Times,serif" font-size="14.00">photo_small_url :string</text>
<text text-anchor="start" x="451" y="-227.8" font-family="Times,serif" font-size="14.00">photo_big_url :string</text>
<text text-anchor="start" x="451" y="-212.8" font-family="Times,serif" font-size="14.00">box_id :integer</text>
<text text-anchor="start" x="451" y="-197.8" font-family="Times,serif" font-size="14.00">created_at :datetime</text>
<text text-anchor="start" x="451" y="-182.8" font-family="Times,serif" font-size="14.00">updated_at :datetime</text>
</g>
<!-- Box&#45;&gt;Item -->
<g id="edge1" class="edge"><title>Box&#45;&gt;Item</title>
<path fill="none" stroke="#d73f41" d="M336.134,-366.037C366.907,-350.723 402.404,-331.753 433,-312 433.4,-311.742 433.8,-311.482 434.2,-311.221"/>
<ellipse fill="none" stroke="#d73f41" cx="332.415" cy="-367.876" rx="4.00002" ry="4.00002"/>
<polygon fill="#d73f41" stroke="#d73f41" points="434.342,-311.126 445.154,-309.293 438.494,-308.341 442.647,-305.556 442.647,-305.556 442.647,-305.556 438.494,-308.341 440.14,-301.818 434.342,-311.126 434.342,-311.126"/>
</g>
<!-- Plan -->
<g id="node6" class="node"><title>Plan</title>
<path fill="none" stroke="black" d="M55,-175C55,-175 183,-175 183,-175 189,-175 195,-181 195,-187 195,-187 195,-299 195,-299 195,-305 189,-311 183,-311 183,-311 55,-311 55,-311 49,-311 43,-305 43,-299 43,-299 43,-187 43,-187 43,-181 49,-175 55,-175"/>
<text text-anchor="middle" x="119" y="-295.8" font-family="Times,serif" font-size="14.00">Plan</text>
<polyline fill="none" stroke="black" points="43,-288 195,-288 "/>
<text text-anchor="start" x="51" y="-272.8" font-family="Times,serif" font-size="14.00">id :integer</text>
<text text-anchor="start" x="51" y="-257.8" font-family="Times,serif" font-size="14.00">name :string</text>
<text text-anchor="start" x="51" y="-242.8" font-family="Times,serif" font-size="14.00">duration :integer</text>
<text text-anchor="start" x="51" y="-227.8" font-family="Times,serif" font-size="14.00">monthly_value :integer</text>
<text text-anchor="start" x="51" y="-212.8" font-family="Times,serif" font-size="14.00">shipping_value :integer</text>
<text text-anchor="start" x="51" y="-197.8" font-family="Times,serif" font-size="14.00">created_at :datetime</text>
<text text-anchor="start" x="51" y="-182.8" font-family="Times,serif" font-size="14.00">updated_at :datetime</text>
</g>
<!-- Box&#45;&gt;Plan -->
<g id="edge5" class="edge"><title>Box&#45;&gt;Plan</title>
<path fill="none" stroke="#d0e75f" d="M208.293,-342.725C200.729,-334.363 192.869,-325.672 185.088,-317.069"/>
<ellipse fill="none" stroke="#d0e75f" cx="211.033" cy="-345.755" rx="4.00002" ry="4.00002"/>
<ellipse fill="#d0e75f" stroke="#d0e75f" cx="182.401" cy="-314.098" rx="4.00002" ry="4.00002"/>
</g>
<!-- Status -->
<g id="node7" class="node"><title>Status</title>
<path fill="none" stroke="black" d="M301.5,-190C301.5,-190 412.5,-190 412.5,-190 418.5,-190 424.5,-196 424.5,-202 424.5,-202 424.5,-284 424.5,-284 424.5,-290 418.5,-296 412.5,-296 412.5,-296 301.5,-296 301.5,-296 295.5,-296 289.5,-290 289.5,-284 289.5,-284 289.5,-202 289.5,-202 289.5,-196 295.5,-190 301.5,-190"/>
<text text-anchor="middle" x="357" y="-280.8" font-family="Times,serif" font-size="14.00">Status</text>
<polyline fill="none" stroke="black" points="289.5,-273 424.5,-273 "/>
<text text-anchor="start" x="297.5" y="-257.8" font-family="Times,serif" font-size="14.00">id :integer</text>
<text text-anchor="start" x="297.5" y="-242.8" font-family="Times,serif" font-size="14.00">name :string</text>
<text text-anchor="start" x="297.5" y="-227.8" font-family="Times,serif" font-size="14.00">description :string</text>
<text text-anchor="start" x="297.5" y="-212.8" font-family="Times,serif" font-size="14.00">created_at :datetime</text>
<text text-anchor="start" x="297.5" y="-197.8" font-family="Times,serif" font-size="14.00">updated_at :datetime</text>
</g>
<!-- Box&#45;&gt;Status -->
<g id="edge3" class="edge"><title>Box&#45;&gt;Status</title>
<path fill="none" stroke="#a4d3a0" d="M297.15,-341.88C304.923,-329.168 313.137,-315.734 320.908,-303.026"/>
<ellipse fill="none" stroke="#a4d3a0" cx="295.053" cy="-345.309" rx="4.00002" ry="4.00002"/>
<ellipse fill="#a4d3a0" stroke="#a4d3a0" cx="323.086" cy="-299.463" rx="4.00002" ry="4.00002"/>
</g>
<!-- Plan&#45;&gt;BoxPlan -->
<g id="edge10" class="edge"><title>Plan&#45;&gt;BoxPlan</title>
<path fill="none" stroke="#aaa7e5" d="M119,-166.359C119,-159.944 119,-153.452 119,-147.028"/>
<ellipse fill="none" stroke="#aaa7e5" cx="119" cy="-170.515" rx="4" ry="4"/>
<polygon fill="#aaa7e5" stroke="#aaa7e5" points="119,-147.009 123.5,-137.009 119,-142.009 119,-137.009 119,-137.009 119,-137.009 119,-142.009 114.5,-137.009 119,-147.009 119,-147.009"/>
</g>
<!-- Status&#45;&gt;BoxStatus -->
<g id="edge12" class="edge"><title>Status&#45;&gt;BoxStatus</title>
<path fill="none" stroke="#51013a" d="M357,-181.737C357,-165.81 357,-148.585 357,-132.54"/>
<ellipse fill="none" stroke="#51013a" cx="357" cy="-185.928" rx="4" ry="4"/>
<polygon fill="#51013a" stroke="#51013a" points="357,-132.192 361.5,-122.192 357,-127.192 357,-122.192 357,-122.192 357,-122.192 357,-127.192 352.5,-122.192 357,-132.192 357,-132.192"/>
</g>
<!-- ActiveRecord::Base -->
<g id="node8" class="node"><title>ActiveRecord::Base</title>
<ellipse fill="none" stroke="black" cx="309" cy="-531" rx="84.2388" ry="18"/>
<text text-anchor="middle" x="309" y="-527.3" font-family="Times,serif" font-size="14.00">ActiveRecord::Base</text>
</g>
<!-- ActiveRecord::Base&#45;&gt;Box -->
<g id="edge6" class="edge"><title>ActiveRecord::Base&#45;&gt;Box</title>
<path fill="none" stroke="black" d="M302.527,-512.872C296.922,-498.045 288.515,-475.8 280.727,-455.196"/>
</g>
<!-- ActiveRecord::Base&#45;&gt;BoxPlan -->
<g id="edge7" class="edge"><title>ActiveRecord::Base&#45;&gt;BoxPlan</title>
<path fill="none" stroke="black" d="M271.533,-514.874C221.574,-494.613 138.72,-460.656 133,-456 72.7687,-406.967 57.0367,-386.171 34,-312 15.8078,-253.427 13.3957,-231.769 34,-174 38.5827,-161.151 45.5097,-148.744 53.4701,-137.247"/>
</g>
<!-- ActiveRecord::Base&#45;&gt;BoxStatus -->
<g id="edge8" class="edge"><title>ActiveRecord::Base&#45;&gt;BoxStatus</title>
<path fill="none" stroke="black" d="M348.629,-514.974C416.035,-486.958 550.861,-419.638 604,-312 631.151,-257.004 637.926,-225.096 604,-174 564.365,-114.307 483.032,-88.7967 424.512,-77.9448"/>
</g>
<!-- ActiveRecord::Base&#45;&gt;Item -->
<g id="edge9" class="edge"><title>ActiveRecord::Base&#45;&gt;Item</title>
<path fill="none" stroke="black" d="M321.508,-512.966C350.028,-474.124 421.163,-377.245 469.793,-311.015"/>
</g>
<!-- ActiveRecord::Base&#45;&gt;Plan -->
<g id="edge11" class="edge"><title>ActiveRecord::Base&#45;&gt;Plan</title>
<path fill="none" stroke="black" d="M268.42,-515.147C240.923,-503.133 205.761,-483.643 184,-456 151.259,-414.408 134.937,-356.336 126.842,-311.485"/>
</g>
<!-- ActiveRecord::Base&#45;&gt;Status -->
<g id="edge13" class="edge"><title>ActiveRecord::Base&#45;&gt;Status</title>
<path fill="none" stroke="black" d="M316.902,-513.063C323.414,-498.32 332.314,-476.205 337,-456 349.445,-402.34 354.178,-339.327 355.961,-296.025"/>
</g>
</g>
</svg>
