<?xml version="1.0" encoding="UTF-8" standalone="no"?>
<!DOCTYPE svg PUBLIC "-//W3C//DTD SVG 1.1//EN"
 "http://www.w3.org/Graphics/SVG/1.1/DTD/svg11.dtd">
<!-- Generated by graphviz version 2.36.0 (20140111.2315)
 -->
<!-- Title: models_diagram Pages: 1 -->
<svg width="468pt" height="302pt"
 viewBox="0.00 0.00 467.66 302.00" xmlns="http://www.w3.org/2000/svg" xmlns:xlink="http://www.w3.org/1999/xlink">
<g id="graph0" class="graph" transform="scale(1 1) rotate(0) translate(4 298)">
<title>models_diagram</title>
<polygon fill="white" stroke="none" points="-4,4 -4,-298 463.662,-298 463.662,4 -4,4"/>
<!-- _diagram_info -->
<g id="node1" class="node"><title>_diagram_info</title>
<text text-anchor="start" x="7.5" y="-279.6" font-family="Times,serif" font-size="13.00">Models diagram</text>
<text text-anchor="start" x="7.5" y="-265.6" font-family="Times,serif" font-size="13.00">Date: Feb 03 2014 &#45; 20:29</text>
<text text-anchor="start" x="7.5" y="-251.6" font-family="Times,serif" font-size="13.00">Migration version: 20140117034654</text>
<text text-anchor="start" x="7.5" y="-237.6" font-family="Times,serif" font-size="13.00">Generated by RailRoady 1.1.1</text>
<text text-anchor="start" x="7.5" y="-223.6" font-family="Times,serif" font-size="13.00">http://railroady.prestonlee.com</text>
</g>
<!-- Box -->
<g id="node2" class="node"><title>Box</title>
<ellipse fill="none" stroke="black" cx="280" cy="-162" rx="27" ry="18"/>
<text text-anchor="middle" x="280" y="-158.3" font-family="Times,serif" font-size="14.00">Box</text>
</g>
<!-- BoxPlan -->
<g id="node3" class="node"><title>BoxPlan</title>
<ellipse fill="none" stroke="black" cx="186" cy="-18" rx="43.319" ry="18"/>
<text text-anchor="middle" x="186" y="-14.3" font-family="Times,serif" font-size="14.00">BoxPlan</text>
</g>
<!-- Box&#45;&gt;BoxPlan -->
<g id="edge4" class="edge"><title>Box&#45;&gt;BoxPlan</title>
<path fill="none" stroke="#dea430" d="M265.47,-138.444C253.809,-120.406 236.972,-94.5016 222,-72 215.519,-62.2589 208.286,-51.5749 202.013,-42.3674"/>
<ellipse fill="none" stroke="#dea430" cx="267.653" cy="-141.825" rx="4.00002" ry="4.00002"/>
<ellipse fill="#dea430" stroke="#dea430" cx="199.686" cy="-38.9582" rx="4.00002" ry="4.00002"/>
</g>
<!-- BoxStatus -->
<g id="node4" class="node"><title>BoxStatus</title>
<ellipse fill="none" stroke="black" cx="340" cy="-18" rx="49.0941" ry="18"/>
<text text-anchor="middle" x="340" y="-14.3" font-family="Times,serif" font-size="14.00">BoxStatus</text>
</g>
<!-- Box&#45;&gt;BoxStatus -->
<g id="edge2" class="edge"><title>Box&#45;&gt;BoxStatus</title>
<path fill="none" stroke="#778f6f" d="M281.968,-135.436C284.131,-117.089 288.64,-92.1501 298,-72 303.094,-61.0329 310.888,-50.3112 318.385,-41.4128"/>
<ellipse fill="none" stroke="#778f6f" cx="281.501" cy="-139.885" rx="4" ry="4"/>
<ellipse fill="#778f6f" stroke="#778f6f" cx="321.115" cy="-38.2896" rx="4.00002" ry="4.00002"/>
</g>
<!-- Item -->
<g id="node5" class="node"><title>Item</title>
<ellipse fill="none" stroke="black" cx="418" cy="-90" rx="26.949" ry="18"/>
<text text-anchor="middle" x="418" y="-86.3" font-family="Times,serif" font-size="14.00">Item</text>
</g>
<!-- Box&#45;&gt;Item -->
<g id="edge1" class="edge"><title>Box&#45;&gt;Item</title>
<path fill="none" stroke="#bf537d" d="M308.36,-146.615C331.461,-134.896 364.006,-118.388 387.633,-106.403"/>
<ellipse fill="none" stroke="#bf537d" cx="304.527" cy="-148.559" rx="4.00002" ry="4.00002"/>
<polygon fill="#bf537d" stroke="#bf537d" points="387.925,-106.255 398.879,-105.745 392.384,-103.993 396.844,-101.732 396.844,-101.732 396.844,-101.732 392.384,-103.993 394.808,-97.7183 387.925,-106.255 387.925,-106.255"/>
</g>
<!-- Plan -->
<g id="node6" class="node"><title>Plan</title>
<ellipse fill="none" stroke="black" cx="186" cy="-90" rx="26.949" ry="18"/>
<text text-anchor="middle" x="186" y="-86.3" font-family="Times,serif" font-size="14.00">Plan</text>
</g>
<!-- Box&#45;&gt;Plan -->
<g id="edge5" class="edge"><title>Box&#45;&gt;Plan</title>
<path fill="none" stroke="#6f8d3e" d="M255.659,-142.874C241.653,-132.444 224.117,-119.385 210.144,-108.979"/>
<ellipse fill="none" stroke="#6f8d3e" cx="259.111" cy="-145.444" rx="4.00002" ry="4.00002"/>
<ellipse fill="#6f8d3e" stroke="#6f8d3e" cx="206.81" cy="-106.497" rx="4.00002" ry="4.00002"/>
</g>
<!-- Status -->
<g id="node7" class="node"><title>Status</title>
<ellipse fill="none" stroke="black" cx="340" cy="-90" rx="33.2209" ry="18"/>
<text text-anchor="middle" x="340" y="-86.3" font-family="Times,serif" font-size="14.00">Status</text>
</g>
<!-- Box&#45;&gt;Status -->
<g id="edge3" class="edge"><title>Box&#45;&gt;Status</title>
<path fill="none" stroke="#cb65e5" d="M298.428,-139.501C305.675,-131.046 313.986,-121.35 321.263,-112.86"/>
<ellipse fill="none" stroke="#cb65e5" cx="295.622" cy="-142.774" rx="4.00002" ry="4.00002"/>
<ellipse fill="#cb65e5" stroke="#cb65e5" cx="323.988" cy="-109.681" rx="4.00002" ry="4.00002"/>
</g>
<!-- Plan&#45;&gt;BoxPlan -->
<g id="edge10" class="edge"><title>Plan&#45;&gt;BoxPlan</title>
<path fill="none" stroke="#0c4c10" d="M186,-63.6398C186,-58.0629 186,-52.1319 186,-46.4761"/>
<ellipse fill="none" stroke="#0c4c10" cx="186" cy="-67.6966" rx="4" ry="4"/>
<polygon fill="#0c4c10" stroke="#0c4c10" points="186,-46.1043 190.5,-36.1043 186,-41.1043 186,-36.1043 186,-36.1043 186,-36.1043 186,-41.1043 181.5,-36.1044 186,-46.1043 186,-46.1043"/>
</g>
<!-- Status&#45;&gt;BoxStatus -->
<g id="edge12" class="edge"><title>Status&#45;&gt;BoxStatus</title>
<path fill="none" stroke="#39de23" d="M340,-63.6398C340,-58.0629 340,-52.1319 340,-46.4761"/>
<ellipse fill="none" stroke="#39de23" cx="340" cy="-67.6966" rx="4" ry="4"/>
<polygon fill="#39de23" stroke="#39de23" points="340,-46.1043 344.5,-36.1043 340,-41.1043 340,-36.1043 340,-36.1043 340,-36.1043 340,-41.1043 335.5,-36.1044 340,-46.1043 340,-46.1043"/>
</g>
<!-- ActiveRecord::Base -->
<g id="node8" class="node"><title>ActiveRecord::Base</title>
<ellipse fill="none" stroke="black" cx="309" cy="-255" rx="84.2388" ry="18"/>
<text text-anchor="middle" x="309" y="-251.3" font-family="Times,serif" font-size="14.00">ActiveRecord::Base</text>
</g>
<!-- ActiveRecord::Base&#45;&gt;Box -->
<g id="edge6" class="edge"><title>ActiveRecord::Base&#45;&gt;Box</title>
<path fill="none" stroke="black" d="M303.545,-236.884C298.328,-220.511 290.509,-195.975 285.332,-179.732"/>
</g>
<!-- ActiveRecord::Base&#45;&gt;BoxPlan -->
<g id="edge7" class="edge"><title>ActiveRecord::Base&#45;&gt;BoxPlan</title>
<path fill="none" stroke="black" d="M279.059,-238.173C239.951,-215.484 173.678,-169.562 150,-108 144.256,-93.0665 145.297,-87.2933 150,-72 154.185,-58.3911 163.185,-45.1411 171.139,-35.2933"/>
</g>
<!-- ActiveRecord::Base&#45;&gt;BoxStatus -->
<g id="edge8" class="edge"><title>ActiveRecord::Base&#45;&gt;BoxStatus</title>
<path fill="none" stroke="black" d="M334.754,-237.784C369.536,-214.169 429.939,-166.668 454,-108 460.071,-93.1966 462.605,-85.4893 454,-72 438.389,-47.5265 408.229,-34.1771 382.85,-26.9989"/>
</g>
<!-- ActiveRecord::Base&#45;&gt;Item -->
<g id="edge9" class="edge"><title>ActiveRecord::Base&#45;&gt;Item</title>
<path fill="none" stroke="black" d="M320.459,-236.864C341.667,-205.15 386.747,-137.736 407.339,-106.942"/>
</g>
<!-- ActiveRecord::Base&#45;&gt;Plan -->
<g id="edge11" class="edge"><title>ActiveRecord::Base&#45;&gt;Plan</title>
<path fill="none" stroke="black" d="M293.043,-237.246C279.418,-222.618 259.609,-200.568 244,-180 225.381,-155.465 206.372,-125.066 195.405,-106.895"/>
</g>
<!-- ActiveRecord::Base&#45;&gt;Status -->
<g id="edge13" class="edge"><title>ActiveRecord::Base&#45;&gt;Status</title>
<path fill="none" stroke="black" d="M312.259,-236.864C318.197,-205.64 330.717,-139.812 336.691,-108.397"/>
</g>
</g>
</svg>
